<svg xmlns="http://www.w3.org/2000/svg" xmlns:xlink="http://www.w3.org/1999/xlink" width="500" zoomAndPan="magnify" viewBox="0 0 375 374.999991" height="500" preserveAspectRatio="xMidYMid meet" version="1.0"><defs><g/><clipPath id="a131e2f663"><path d="M 70.863281 244.335938 L 133.84375 244.335938 L 133.84375 351.980469 L 70.863281 351.980469 Z M 70.863281 244.335938 " clip-rule="nonzero"/></clipPath><clipPath id="27579ebb85"><path d="M 70.863281 25.582031 L 133.84375 25.582031 L 133.84375 88.566406 L 70.863281 88.566406 Z M 70.863281 25.582031 " clip-rule="nonzero"/></clipPath><clipPath id="4a8447060a"><path d="M 102.351562 25.582031 C 84.960938 25.582031 70.863281 39.683594 70.863281 57.074219 C 70.863281 74.464844 84.960938 88.566406 102.351562 88.566406 C 119.746094 88.566406 133.84375 74.464844 133.84375 57.074219 C 133.84375 39.683594 119.746094 25.582031 102.351562 25.582031 Z M 102.351562 25.582031 " clip-rule="nonzero"/></clipPath><clipPath id="581fada730"><path d="M 233.835938 219.347656 L 296.816406 219.347656 L 296.816406 284.957031 L 233.835938 284.957031 Z M 233.835938 219.347656 " clip-rule="nonzero"/></clipPath><clipPath id="052ec67b25"><path d="M 180.785156 77.949219 L 286.882812 77.949219 L 286.882812 133.585938 L 180.785156 133.585938 Z M 180.785156 77.949219 " clip-rule="nonzero"/></clipPath><clipPath id="1d963d19e1"><path d="M 188.359375 100.386719 L 215.738281 100.386719 L 215.738281 127.765625 L 188.359375 127.765625 Z M 188.359375 100.386719 " clip-rule="nonzero"/></clipPath><clipPath id="a6b46ac39b"><path d="M 202.046875 100.386719 C 194.488281 100.386719 188.359375 106.515625 188.359375 114.078125 C 188.359375 121.636719 194.488281 127.765625 202.046875 127.765625 C 209.609375 127.765625 215.738281 121.636719 215.738281 114.078125 C 215.738281 106.515625 209.609375 100.386719 202.046875 100.386719 Z M 202.046875 100.386719 " clip-rule="nonzero"/></clipPath><clipPath id="83a1f3617a"><path d="M 251.363281 100.386719 L 278.746094 100.386719 L 278.746094 127.765625 L 251.363281 127.765625 Z M 251.363281 100.386719 " clip-rule="nonzero"/></clipPath><clipPath id="663f14904b"><path d="M 265.054688 100.386719 C 257.492188 100.386719 251.363281 106.515625 251.363281 114.078125 C 251.363281 121.636719 257.492188 127.765625 265.054688 127.765625 C 272.617188 127.765625 278.746094 121.636719 278.746094 114.078125 C 278.746094 106.515625 272.617188 100.386719 265.054688 100.386719 Z M 265.054688 100.386719 " clip-rule="nonzero"/></clipPath></defs><g clip-path="url(#a131e2f663)"><path fill="#ff3131" d="M 70.863281 244.335938 L 133.84375 244.335938 L 133.84375 352.097656 L 70.863281 352.097656 Z M 70.863281 244.335938 " fill-opacity="1" fill-rule="nonzero"/></g><g clip-path="url(#27579ebb85)"><g clip-path="url(#4a8447060a)"><path fill="#ff914d" d="M 70.863281 25.582031 L 133.84375 25.582031 L 133.84375 88.566406 L 70.863281 88.566406 Z M 70.863281 25.582031 " fill-opacity="1" fill-rule="nonzero"/></g></g><g clip-path="url(#581fada730)"><path fill="#ffde59" d="M 233.835938 219.347656 L 296.816406 219.347656 L 296.816406 285.039062 L 233.835938 285.039062 Z M 233.835938 219.347656 " fill-opacity="1" fill-rule="nonzero"/></g><g fill="#ffffff" fill-opacity="1"><g transform="translate(180.766413, 182.609049)"><g><path d="M 53.03125 1.734375 C 44.101562 1.734375 36.257812 -0.0976562 29.5 -3.765625 C 22.738281 -7.429688 17.492188 -12.804688 13.765625 -19.890625 C 10.046875 -26.984375 8.1875 -35.550781 8.1875 -45.59375 C 8.1875 -55.632812 10.046875 -64.210938 13.765625 -71.328125 C 17.492188 -78.441406 22.738281 -83.832031 29.5 -87.5 C 36.257812 -91.164062 44.101562 -93 53.03125 -93 C 61.96875 -93 69.816406 -91.164062 76.578125 -87.5 C 83.335938 -83.832031 88.59375 -78.441406 92.34375 -71.328125 C 96.09375 -64.210938 97.96875 -55.632812 97.96875 -45.59375 C 97.96875 -35.550781 96.09375 -26.984375 92.34375 -19.890625 C 88.59375 -12.804688 83.335938 -7.429688 76.578125 -3.765625 C 69.816406 -0.0976562 61.96875 1.734375 53.03125 1.734375 Z M 53.03125 -17.703125 C 67.207031 -17.703125 74.296875 -27 74.296875 -45.59375 C 74.296875 -55.238281 72.472656 -62.3125 68.828125 -66.8125 C 65.191406 -71.3125 59.925781 -73.5625 53.03125 -73.5625 C 38.851562 -73.5625 31.765625 -64.238281 31.765625 -45.59375 C 31.765625 -27 38.851562 -17.703125 53.03125 -17.703125 Z M 53.03125 -17.703125 "/></g></g></g><g clip-path="url(#052ec67b25)"><path fill="#ffffff" d="M 180.785156 77.949219 L 286.847656 77.949219 L 286.847656 133.585938 L 180.785156 133.585938 Z M 180.785156 77.949219 " fill-opacity="1" fill-rule="nonzero"/></g><g clip-path="url(#1d963d19e1)"><g clip-path="url(#a6b46ac39b)"><path fill="#ffffff" d="M 188.359375 100.386719 L 215.738281 100.386719 L 215.738281 127.765625 L 188.359375 127.765625 Z M 188.359375 100.386719 " fill-opacity="1" fill-rule="nonzero"/></g></g><g clip-path="url(#83a1f3617a)"><g clip-path="url(#663f14904b)"><path fill="#ffffff" d="M 251.363281 100.386719 L 278.746094 100.386719 L 278.746094 127.765625 L 251.363281 127.765625 Z M 251.363281 100.386719 " fill-opacity="1" fill-rule="nonzero"/></g></g><g fill="#ffffff" fill-opacity="1"><g transform="translate(83.398557, 181.397215)"><g><path d="M 90.203125 -40.46875 L 31.53125 -40.46875 C 32.1875 -32.519531 34.445312 -26.738281 38.3125 -23.125 C 42.175781 -19.507812 47.445312 -17.703125 54.125 -17.703125 C 59.363281 -17.703125 63.609375 -18.679688 66.859375 -20.640625 C 70.117188 -22.597656 72.738281 -25.566406 74.71875 -29.546875 L 76.453125 -29.546875 L 91.6875 -19.78125 C 88.707031 -13.375 84.207031 -8.1875 78.1875 -4.21875 C 72.175781 -0.25 64.15625 1.734375 54.125 1.734375 C 44.6875 1.734375 36.53125 -0.0546875 29.65625 -3.640625 C 22.789062 -7.222656 17.492188 -12.554688 13.765625 -19.640625 C 10.046875 -26.734375 8.1875 -35.382812 8.1875 -45.59375 C 8.1875 -55.96875 10.144531 -64.710938 14.0625 -71.828125 C 17.976562 -78.941406 23.273438 -84.25 29.953125 -87.75 C 36.628906 -91.257812 44.132812 -93.015625 52.46875 -93.015625 C 65.375 -93.015625 75.257812 -89.59375 82.125 -82.75 C 89 -75.90625 92.4375 -65.863281 92.4375 -52.625 C 92.4375 -47.820312 92.269531 -44.097656 91.9375 -41.453125 Z M 70.5 -55.28125 C 70.28125 -62.226562 68.664062 -67.285156 65.65625 -70.453125 C 62.65625 -73.628906 58.257812 -75.21875 52.46875 -75.21875 C 40.875 -75.21875 34.0625 -68.570312 32.03125 -55.28125 Z M 70.5 -55.28125 "/></g></g></g><g fill="#ffffff" fill-opacity="1"><g transform="translate(83.398557, 325.397206)"><g><path d="M 39.640625 -120.984375 L 39.640625 -20.03125 L 94 -20.03125 L 94 0 L 15.71875 0 L 15.71875 -120.984375 Z M 39.640625 -120.984375 "/></g></g></g><g fill="#ffffff" fill-opacity="1"><g transform="translate(172.042952, 325.397206)"><g><path d="M 96.984375 -120.984375 L 96.984375 -100.875 L 62.0625 -100.875 L 62.0625 0 L 38.234375 0 L 38.234375 -100.875 L 3.3125 -100.875 L 3.3125 -120.984375 Z M 96.984375 -120.984375 "/></g></g></g></svg>